<mxfile host="app.diagrams.net" modified="2020-07-27T06:34:28.225Z" agent="5.0 (Macintosh; Intel Mac OS X 10_15_3) AppleWebKit/605.1.15 (KHTML, like Gecko) Version/13.0.5 Safari/605.1.15" etag="NvLyprZpDR_I1DmjpOGU" version="13.5.3" type="github">
  <diagram id="R2lEEEUBdFMjLlhIrx00" name="Page-1">
    <mxGraphModel dx="1186" dy="1660" grid="1" gridSize="10" guides="1" tooltips="1" connect="1" arrows="1" fold="1" page="1" pageScale="1" pageWidth="850" pageHeight="1100" math="0" shadow="0" extFonts="Permanent Marker^https://fonts.googleapis.com/css?family=Permanent+Marker">
      <root>
        <mxCell id="0" />
        <mxCell id="1" parent="0" />
        <mxCell id="ASuUxQldEcI1DQPfpwot-1" value="Car" style="whiteSpace=wrap;html=1;align=center;" vertex="1" parent="1">
          <mxGeometry x="130" y="250" width="100" height="40" as="geometry" />
        </mxCell>
        <mxCell id="ASuUxQldEcI1DQPfpwot-2" value="Company" style="whiteSpace=wrap;html=1;align=center;" vertex="1" parent="1">
          <mxGeometry x="370" y="100" width="100" height="40" as="geometry" />
        </mxCell>
        <mxCell id="ASuUxQldEcI1DQPfpwot-3" value="Customer" style="whiteSpace=wrap;html=1;align=center;" vertex="1" parent="1">
          <mxGeometry x="180" y="530" width="100" height="40" as="geometry" />
        </mxCell>
        <mxCell id="ASuUxQldEcI1DQPfpwot-4" value="Revenue" style="whiteSpace=wrap;html=1;align=center;" vertex="1" parent="1">
          <mxGeometry x="610" y="250" width="100" height="40" as="geometry" />
        </mxCell>
        <mxCell id="ASuUxQldEcI1DQPfpwot-7" value="Attribute" style="ellipse;shape=doubleEllipse;margin=3;whiteSpace=wrap;html=1;align=center;" vertex="1" parent="1">
          <mxGeometry x="280" y="-20" width="100" height="40" as="geometry" />
        </mxCell>
        <mxCell id="ASuUxQldEcI1DQPfpwot-9" value="Branches" style="whiteSpace=wrap;html=1;align=center;" vertex="1" parent="1">
          <mxGeometry x="560" y="530" width="100" height="40" as="geometry" />
        </mxCell>
      </root>
    </mxGraphModel>
  </diagram>
</mxfile>
